<svg id="Layer_1" data-name="Layer 1" xmlns="http://www.w3.org/2000/svg" viewBox="0 0 480 360"><defs><style>.cls-1{fill:#231f20;}.cls-2{fill:#ed1c24;}.cls-3{fill:#fff;}</style></defs><title>launchpadDraft</title><rect class="cls-1" width="480" height="360"/><circle class="cls-2" cx="240" cy="122.79" r="74.96"/><path class="cls-1" d="M211.1,119.12l-17.83,5a1.08,1.08,0,0,0-.54.35l-12.68,15.25a1.13,1.13,0,0,0-.25.7.84.84,0,0,0,0,.31,1.07,1.07,0,0,0,.73.73l18,5.24a16,16,0,0,0,2.63,10l-5.71,6.94a1.09,1.09,0,0,0,.09,1.48l5.43,5.15a1.08,1.08,0,0,0,1.54-.05l6.31-6.87c1.6.58,5.59,1.63,11.65.52L227,181.44a1.1,1.1,0,0,0,.77.68,1.08,1.08,0,0,0,1-.27l14.36-13.67a1.15,1.15,0,0,0,.33-.6l3.22-18a127.52,127.52,0,0,0,11.79-11.73C274.26,120.07,280.62,105,283,94.33a50.8,50.8,0,0,0,1.3-11.08,25.88,25.88,0,0,0-.39-4.94,1.1,1.1,0,0,0-.88-.83c-.63-.11-9.36-1.46-23.06,3.58-10.64,3.9-24.28,11.66-39.46,26.83A127.13,127.13,0,0,0,211.1,119.12Zm19.41,1.64a10.94,10.94,0,1,1,10.94,10.94A10.93,10.93,0,0,1,230.51,120.76Z"/><path class="cls-3" d="M136,224.67v23.27h8v3.85H131.86V224.67Z"/><path class="cls-3" d="M165.24,245.2h-11.6l-3,6.59h-4.4L159.62,223l12.95,28.82h-4.48Zm-1.66-3.84-4-9.22-4.21,9.22Z"/><path class="cls-3" d="M179,224.67V241a9,9,0,0,0,1.14,5.12,6.12,6.12,0,0,0,9.61,0c.76-1.05,1.14-2.75,1.14-5.12V224.67H195v17.46a9.75,9.75,0,0,1-2.66,7.06,10.33,10.33,0,0,1-14.74,0,9.76,9.76,0,0,1-2.67-7.06V224.67Z"/><path class="cls-3" d="M201.49,251.79v-29l19.78,20.69V224.67h4.09v28.77L205.59,232.8v19Z"/><path class="cls-3" d="M252.15,226.13V231a11.37,11.37,0,0,0-7.35-3,9.36,9.36,0,0,0-7,3,10.13,10.13,0,0,0-2.88,7.31,9.9,9.9,0,0,0,2.88,7.2,9.52,9.52,0,0,0,7.06,2.93,8.64,8.64,0,0,0,3.67-.7,10.88,10.88,0,0,0,1.75-.95,22.24,22.24,0,0,0,1.91-1.44v4.93a14.77,14.77,0,0,1-7.38,2,13.58,13.58,0,0,1-9.92-4.06,13.42,13.42,0,0,1-4.1-9.87,14,14,0,0,1,3.43-9.24,13.64,13.64,0,0,1,10.91-5A13.92,13.92,0,0,1,252.15,226.13Z"/><path class="cls-3" d="M262.15,235.28h11.7V224.67h4.09v27.12h-4.09V239.12h-11.7v12.67h-4.09V224.67h4.09Z"/><path class="cls-3" d="M288.53,240.78v11h-4.09V224.67h4.64a20.72,20.72,0,0,1,5.15.48,6.83,6.83,0,0,1,3.09,1.79,7.73,7.73,0,0,1,2.33,5.76,7.44,7.44,0,0,1-2.49,5.9,9.89,9.89,0,0,1-6.73,2.18Zm0-3.8h1.53c3.76,0,5.64-1.44,5.64-4.34s-1.94-4.19-5.81-4.19h-1.36Z"/><path class="cls-3" d="M317.81,245.2H306.2l-3,6.59h-4.41L312.19,223l12.95,28.82h-4.48Zm-1.67-3.84-4-9.22-4.21,9.22Z"/><path class="cls-3" d="M328.53,251.79V224.67h5.69a20.67,20.67,0,0,1,6.46.81,12,12,0,0,1,4.62,2.69,14,14,0,0,1-.18,20.18,12.73,12.73,0,0,1-4.6,2.68,20.69,20.69,0,0,1-6.37.76Zm4.09-3.85h1.84a15.31,15.31,0,0,0,4.59-.58,9.42,9.42,0,0,0,3.3-2,9.27,9.27,0,0,0,3-7.18,9.44,9.44,0,0,0-3-7.24q-2.69-2.48-7.92-2.47h-1.84Z"/><rect class="cls-1" x="145.05" y="304.13" width="107.33" height="41.28" rx="6.89"/><path class="cls-3" d="M212.92,330.17a6.21,6.21,0,0,1-.79,3.19,7,7,0,0,1-2.08,2.26,10.21,10.21,0,0,1-2.89,1.35,11.84,11.84,0,0,1-3.21.45,13.4,13.4,0,0,1-5.41-1.11,15.43,15.43,0,0,1-4.57-3,.55.55,0,0,1-.21-.37.61.61,0,0,1,.17-.39.54.54,0,0,1,.41-.18.45.45,0,0,1,.33.17,20.63,20.63,0,0,0,4.33,2.81,11.7,11.7,0,0,0,5,1.06,10.41,10.41,0,0,0,2.81-.39,8.16,8.16,0,0,0,2.53-1.18,6.13,6.13,0,0,0,1.82-2,5.33,5.33,0,0,0,.69-2.76,3.94,3.94,0,0,0-.61-2.2,5.56,5.56,0,0,0-1.58-1.59,9.92,9.92,0,0,0-2.24-1.09c-.84-.29-1.69-.54-2.54-.76s-1.69-.4-2.51-.55-1.53-.32-2.14-.47a11.85,11.85,0,0,1-2.14-.83,7.14,7.14,0,0,1-1.8-1.3,6,6,0,0,1-1.23-1.8,5.65,5.65,0,0,1-.45-2.3,5.46,5.46,0,0,1,.79-3,6.81,6.81,0,0,1,2-2.09,9.83,9.83,0,0,1,2.8-1.24,11,11,0,0,1,3-.43,13.52,13.52,0,0,1,2.14.2,17.26,17.26,0,0,1,2.39.57,14,14,0,0,1,2.24.92,7.6,7.6,0,0,1,1.75,1.21,1,1,0,0,1,.15.17.41.41,0,0,1,0,.23.51.51,0,0,1-.17.37.48.48,0,0,1-.37.17.64.64,0,0,1-.25-.1c-.12-.07-.26-.15-.4-.25l-.41-.27-.28-.19a15.22,15.22,0,0,0-3.24-1.44,11.67,11.67,0,0,0-3.53-.54,11.05,11.05,0,0,0-2.63.32,8.52,8.52,0,0,0-2.47,1,5.81,5.81,0,0,0-1.85,1.74,4.34,4.34,0,0,0-.73,2.54,4.46,4.46,0,0,0,.74,2.65,5.64,5.64,0,0,0,2,1.69,12.79,12.79,0,0,0,2.76,1.06c1,.27,2.08.53,3.17.77s2.15.52,3.18.81a10.41,10.41,0,0,1,2.75,1.2,6.07,6.07,0,0,1,2,1.92A5.51,5.51,0,0,1,212.92,330.17Z"/><path class="cls-3" d="M236,330.17a6.31,6.31,0,0,1-.79,3.19,7,7,0,0,1-2.09,2.26,10,10,0,0,1-2.89,1.35,11.73,11.73,0,0,1-3.21.45,13.43,13.43,0,0,1-5.41-1.11,15.56,15.56,0,0,1-4.57-3,.57.57,0,0,1-.2-.37.57.57,0,0,1,.17-.39.52.52,0,0,1,.4-.18.48.48,0,0,1,.34.17,20.57,20.57,0,0,0,4.32,2.81,11.75,11.75,0,0,0,5,1.06,10.41,10.41,0,0,0,2.81-.39,8.1,8.1,0,0,0,2.52-1.18,6,6,0,0,0,1.82-2,5.33,5.33,0,0,0,.69-2.76,3.94,3.94,0,0,0-.6-2.2,5.73,5.73,0,0,0-1.59-1.59,9.72,9.72,0,0,0-2.24-1.09c-.84-.29-1.68-.54-2.54-.76s-1.69-.4-2.51-.55-1.53-.32-2.13-.47a11.57,11.57,0,0,1-2.14-.83,6.8,6.8,0,0,1-1.8-1.3,5.67,5.67,0,0,1-1.69-4.1,5.54,5.54,0,0,1,.79-3,6.84,6.84,0,0,1,2.06-2.09,9.77,9.77,0,0,1,2.79-1.24,11,11,0,0,1,3-.43,13.3,13.3,0,0,1,2.13.2,16.93,16.93,0,0,1,2.39.57,13.64,13.64,0,0,1,2.24.92,7.39,7.39,0,0,1,1.75,1.21l.16.17a.41.41,0,0,1,.05.23.51.51,0,0,1-.17.37.49.49,0,0,1-.37.17.66.66,0,0,1-.26-.1l-.4-.25-.4-.27-.29-.19A15.37,15.37,0,0,0,230,312a11.73,11.73,0,0,0-3.54-.54,11,11,0,0,0-2.62.32,8.7,8.7,0,0,0-2.48,1,5.81,5.81,0,0,0-1.85,1.74,5,5,0,0,0,0,5.19,5.64,5.64,0,0,0,1.95,1.69,12.5,12.5,0,0,0,2.75,1.06c1,.27,2.09.53,3.18.77s2.14.52,3.17.81a10.48,10.48,0,0,1,2.76,1.2,6.27,6.27,0,0,1,1.95,1.92A5.51,5.51,0,0,1,236,330.17Z"/><path class="cls-3" d="M259.82,329.9a7.33,7.33,0,0,1-.59,2.92,7.48,7.48,0,0,1-4,4,7.33,7.33,0,0,1-2.92.59h-7.47a.43.43,0,0,1-.39-.2.86.86,0,0,1-.12-.44V311.53h-2.22v25.39a.45.45,0,0,1-.18.37.65.65,0,0,1-.39.13.55.55,0,0,1-.37-.15.47.47,0,0,1-.17-.35V311c0-.33.18-.5.54-.5H251.7a6.62,6.62,0,0,1,2.55.5,6.42,6.42,0,0,1,2.07,1.4,6.8,6.8,0,0,1,1.39,2.06,6.16,6.16,0,0,1,.53,2.52,6.37,6.37,0,0,1-1,3.41,6.05,6.05,0,0,1-2.68,2.37,7.72,7.72,0,0,1,2.12,1.08,7.22,7.22,0,0,1,1.65,1.66,7.94,7.94,0,0,1,1.06,2.07A7.09,7.09,0,0,1,259.82,329.9ZM257.19,317a5.08,5.08,0,0,0-.44-2.13,5.58,5.58,0,0,0-1.17-1.72,5.79,5.79,0,0,0-1.74-1.17,5.25,5.25,0,0,0-2.14-.44h-6.36v10.88h6.36a5.38,5.38,0,0,0,2.13-.44,5.71,5.71,0,0,0,1.75-1.17,5.58,5.58,0,0,0,1.17-1.72A5,5,0,0,0,257.19,317Zm1.58,12.92a6.22,6.22,0,0,0-.5-2.49,6.45,6.45,0,0,0-3.43-3.43,6.25,6.25,0,0,0-2.5-.51c-.09,0-.14,0-.16,0h-6.84v12.93h7a6.16,6.16,0,0,0,2.51-.51,6.24,6.24,0,0,0,2-1.38,6.61,6.61,0,0,0,1.38-2.05A6.31,6.31,0,0,0,258.77,329.91Z"/><path class="cls-3" d="M284.44,313.4v4.54a10.62,10.62,0,0,0-6.87-2.78A8.76,8.76,0,0,0,271,318a9.49,9.49,0,0,0-2.7,6.84,9.23,9.23,0,0,0,2.7,6.74,8.91,8.91,0,0,0,6.61,2.75,8,8,0,0,0,3.43-.66,9.2,9.2,0,0,0,1.64-.89,18.41,18.41,0,0,0,1.78-1.34V336a13.8,13.8,0,0,1-6.9,1.86,12.72,12.72,0,0,1-9.29-3.8,12.59,12.59,0,0,1-3.83-9.23,13,13,0,0,1,3.21-8.65,12.76,12.76,0,0,1,10.21-4.65A13,13,0,0,1,284.44,313.4Z"/></svg>
