<!-- Generator: Adobe Illustrator 23.1.1, SVG Export Plug-In  -->
<svg version="1.1" xmlns="http://www.w3.org/2000/svg" xmlns:xlink="http://www.w3.org/1999/xlink" x="0px" y="0px" width="69.7px"
	 height="25.2px" viewBox="0 0 69.7 25.2" style="enable-background:new 0 0 69.7 25.2;" xml:space="preserve">
<style type="text/css">
	.st0{fill:#414042;stroke:#000000;stroke-miterlimit:10;}
	.st1{fill:#F1F2F2;}
</style>
<defs>
</defs>
<path class="st0" d="M57.1,24.7H12.6c-6.6,0-12.1-5.4-12.1-12.1v0c0-6.6,5.4-12.1,12.1-12.1h44.6c6.6,0,12.1,5.4,12.1,12.1v0
	C69.2,19.2,63.8,24.7,57.1,24.7z"/>
<g>
	<path class="st1" d="M12.9,12.1v5.2H11V4.5h2.2c1.1,0,1.9,0.1,2.4,0.2c0.6,0.1,1,0.4,1.5,0.8c0.7,0.7,1.1,1.6,1.1,2.7
		c0,1.2-0.4,2.1-1.2,2.8s-1.8,1-3.2,1H12.9z M12.9,10.3h0.7c1.8,0,2.7-0.7,2.7-2c0-1.3-0.9-2-2.7-2h-0.6V10.3z"/>
	<path class="st1" d="M19.8,9.2h1.9v0.7c0.3-0.4,0.6-0.6,0.9-0.7c0.3-0.1,0.6-0.2,1-0.2c0.5,0,1,0.2,1.5,0.5l-0.9,1.7
		c-0.4-0.3-0.7-0.4-1-0.4c-1,0-1.5,0.8-1.5,2.3v4.2h-1.9V9.2z"/>
	<path class="st1" d="M25.6,13.2c0-1.2,0.4-2.2,1.3-3S28.7,9,29.9,9c1.2,0,2.2,0.4,3.1,1.2c0.8,0.8,1.2,1.8,1.2,3
		c0,1.2-0.4,2.2-1.3,3c-0.8,0.8-1.9,1.2-3.1,1.2c-1.2,0-2.2-0.4-3-1.2C26,15.5,25.6,14.4,25.6,13.2z M27.5,13.2
		c0,0.8,0.2,1.4,0.6,1.9c0.4,0.5,1,0.7,1.7,0.7c0.7,0,1.3-0.2,1.7-0.7c0.4-0.5,0.7-1.1,0.7-1.9c0-0.8-0.2-1.4-0.7-1.9
		c-0.4-0.5-1-0.7-1.7-0.7c-0.7,0-1.3,0.2-1.7,0.7C27.7,11.9,27.5,12.5,27.5,13.2z"/>
	<path class="st1" d="M37.8,9.2v9.2c0,0.2,0,0.5,0,0.8c0,0.3-0.1,0.7-0.3,1c-0.2,0.3-0.4,0.6-0.7,0.8c-0.3,0.2-0.8,0.3-1.4,0.3
		c-0.2,0-0.3,0-0.5,0c-0.2,0-0.3-0.1-0.5-0.1l0.2-1.4c0.1,0,0.2,0.1,0.3,0.1c0.1,0,0.2,0,0.3,0c0.4,0,0.7-0.1,0.9-0.4
		c0.2-0.3,0.2-0.7,0.2-1.2V9.2H37.8z M35.9,6.4c0-0.3,0.1-0.6,0.3-0.8c0.2-0.2,0.5-0.3,0.8-0.3s0.6,0.1,0.8,0.3
		c0.2,0.2,0.3,0.5,0.3,0.8c0,0.3-0.1,0.6-0.3,0.8c-0.2,0.2-0.5,0.3-0.8,0.3s-0.6-0.1-0.8-0.3C36.1,6.9,35.9,6.7,35.9,6.4z"/>
	<path class="st1" d="M47.6,13.7h-5.8c0,0.7,0.3,1.2,0.6,1.6c0.4,0.4,0.9,0.6,1.5,0.6c0.5,0,0.8-0.1,1.2-0.3c0.3-0.2,0.6-0.6,1-1.2
		l1.6,0.9c-0.2,0.4-0.5,0.8-0.8,1.1c-0.3,0.3-0.6,0.5-0.9,0.7c-0.3,0.2-0.6,0.3-1,0.4s-0.7,0.1-1.2,0.1c-1.2,0-2.2-0.4-2.9-1.2
		c-0.7-0.8-1.1-1.8-1.1-3.1c0-1.3,0.4-2.3,1.1-3.1C41.7,9.4,42.6,9,43.8,9c1.2,0,2.1,0.4,2.8,1.1c0.7,0.8,1,1.8,1,3.1L47.6,13.7z
		 M45.7,12.2c-0.3-1-0.9-1.5-1.9-1.5c-0.2,0-0.4,0-0.6,0.1c-0.2,0.1-0.4,0.2-0.5,0.3s-0.3,0.3-0.4,0.5c-0.1,0.2-0.2,0.4-0.3,0.6
		H45.7z"/>
	<path class="st1" d="M56,9.6V12c-0.4-0.5-0.8-0.9-1.1-1.1c-0.3-0.2-0.7-0.3-1.2-0.3c-0.7,0-1.3,0.2-1.7,0.7
		c-0.5,0.5-0.7,1.1-0.7,1.8c0,0.8,0.2,1.4,0.7,1.9c0.5,0.5,1,0.7,1.7,0.7c0.4,0,0.8-0.1,1.2-0.3c0.3-0.2,0.7-0.6,1.2-1.1v2.5
		c-0.8,0.4-1.5,0.6-2.3,0.6c-1.2,0-2.3-0.4-3.1-1.2c-0.8-0.8-1.3-1.8-1.3-3s0.4-2.2,1.3-3.1S52.5,9,53.7,9C54.5,9,55.3,9.2,56,9.6z"
		/>
	<path class="st1" d="M59.7,11v6.3h-1.9V11H57V9.2h0.8v-3h1.9v3h1.5V11H59.7z"/>
</g>
</svg>
